<?xml version="1.0" encoding="UTF-8"?>
<svg width="491px" height="613px" viewBox="0 0 491 613" version="1.1" xmlns="http://www.w3.org/2000/svg" xmlns:xlink="http://www.w3.org/1999/xlink">
    <title>Fist</title>
    <defs>
        <linearGradient x1="0%" y1="49.9985801%" x2="100%" y2="49.9985801%" id="linearGradient-1">
            <stop stop-color="#E5E5E4" offset="0%"></stop>
            <stop stop-color="#EBEBEA" offset="36.3%"></stop>
            <stop stop-color="#FDFDFD" offset="87%"></stop>
            <stop stop-color="#FFFFFF" offset="92.3%"></stop>
        </linearGradient>
        <linearGradient x1="0%" y1="50%" x2="100%" y2="50%" id="linearGradient-2">
            <stop stop-color="#919191" offset="0%"></stop>
            <stop stop-color="#808080" offset="2.1%"></stop>
            <stop stop-color="#656565" offset="6.3%"></stop>
            <stop stop-color="#4F4F4F" offset="11.1%"></stop>
            <stop stop-color="#3E3E3E" offset="16.7%"></stop>
            <stop stop-color="#323232" offset="23.5%"></stop>
            <stop stop-color="#2B2B2B" offset="33%"></stop>
            <stop stop-color="#292929" offset="57.8%"></stop>
            <stop stop-color="#2C2C2C" offset="69.9%"></stop>
            <stop stop-color="#343434" offset="77.6%"></stop>
            <stop stop-color="#434343" offset="84.2%"></stop>
            <stop stop-color="#585858" offset="90%"></stop>
            <stop stop-color="#737373" offset="95.3%"></stop>
            <stop stop-color="#919191" offset="100%"></stop>
        </linearGradient>
        <linearGradient x1="50%" y1="100%" x2="50%" y2="0%" id="linearGradient-3">
            <stop stop-color="#6D6D6D" offset="0%"></stop>
            <stop stop-color="#525252" offset="100%"></stop>
        </linearGradient>
        <linearGradient x1="49.9995846%" y1="100.000423%" x2="49.9995846%" y2="0%" id="linearGradient-4">
            <stop stop-color="#C1C1C1" offset="0%"></stop>
            <stop stop-color="#AFAFAF" offset="11.7%"></stop>
            <stop stop-color="#7D7D7D" offset="46.6%"></stop>
            <stop stop-color="#5E5E5E" offset="73%"></stop>
            <stop stop-color="#525252" offset="87.7%"></stop>
        </linearGradient>
        <path d="M228.644,5.68434189e-14 L12.091,5.68434189e-14 C33.67,84.7 0,231.2 0,231.2 C0,231.2 36.442,236.217 119.438,236.217 C202.434,236.217 240.738,231.2 240.738,231.2 C240.738,231.2 207.065,84.705 228.644,5.68434189e-14 Z" id="path-5"></path>
        <linearGradient x1="50%" y1="100%" x2="50%" y2="2.27726196e-14%" id="linearGradient-7">
            <stop stop-color="#919191" offset="0%"></stop>
            <stop stop-color="#7A7A7A" offset="22.4%"></stop>
            <stop stop-color="#6D6D6D" offset="39.9%"></stop>
            <stop stop-color="#5E5E5E" offset="67.9%"></stop>
            <stop stop-color="#525252" offset="100%"></stop>
        </linearGradient>
        <linearGradient x1="49.9997691%" y1="100%" x2="49.9997691%" y2="0.0030160681%" id="linearGradient-8">
            <stop stop-color="#6D6D6D" offset="0%"></stop>
            <stop stop-color="#4B4B4B" offset="51.3%"></stop>
            <stop stop-color="#373737" offset="88.2%"></stop>
        </linearGradient>
        <linearGradient x1="-5103.85%" y1="49.9801823%" x2="3052.45%" y2="49.9801823%" id="linearGradient-9">
            <stop stop-color="#E5E5E4" offset="0%"></stop>
            <stop stop-color="#EBEBEA" offset="36.3%"></stop>
            <stop stop-color="#FDFDFD" offset="87%"></stop>
            <stop stop-color="#FFFFFF" offset="92.3%"></stop>
        </linearGradient>
        <linearGradient x1="49.9723909%" y1="1055.14159%" x2="49.9723909%" y2="-118.477876%" id="linearGradient-10">
            <stop stop-color="#E5E5E4" offset="0%"></stop>
            <stop stop-color="#DFDFDE" offset="16.1%"></stop>
            <stop stop-color="#CCCCCC" offset="38.8%"></stop>
            <stop stop-color="#AFAFAE" offset="65.1%"></stop>
            <stop stop-color="#919191" offset="86.5%"></stop>
        </linearGradient>
        <linearGradient x1="50.0833333%" y1="1220.15825%" x2="50.0833333%" y2="-5.22986649e-13%" id="linearGradient-11">
            <stop stop-color="#E5E5E4" offset="0%"></stop>
            <stop stop-color="#DFDFDE" offset="16.1%"></stop>
            <stop stop-color="#CCCCCC" offset="38.8%"></stop>
            <stop stop-color="#AFAFAE" offset="65.1%"></stop>
            <stop stop-color="#919191" offset="86.5%"></stop>
        </linearGradient>
        <linearGradient x1="49.4399909%" y1="178.130935%" x2="50.3724947%" y2="-14.4584658%" id="linearGradient-12">
            <stop stop-color="#6D6D6D" offset="0%"></stop>
            <stop stop-color="#BDBDBD" offset="71.5%"></stop>
            <stop stop-color="#C1C1C1" offset="74.8%"></stop>
        </linearGradient>
        <linearGradient x1="49.8147602%" y1="93.6458549%" x2="50.0659718%" y2="-3.53239008%" id="linearGradient-13">
            <stop stop-color="#525252" offset="0%"></stop>
            <stop stop-color="#A2A2A2" offset="54.6%"></stop>
            <stop stop-color="#C1C1C1" offset="74.8%"></stop>
        </linearGradient>
        <linearGradient x1="0%" y1="49.9994932%" x2="100%" y2="49.9994932%" id="linearGradient-14">
            <stop stop-color="#121212" offset="12.2%"></stop>
            <stop stop-color="#272727" offset="41.7%"></stop>
            <stop stop-color="#494949" offset="80.6%"></stop>
        </linearGradient>
        <linearGradient x1="49.1597094%" y1="63.5798694%" x2="50.8234245%" y2="36.3454572%" id="linearGradient-15">
            <stop stop-color="#373737" offset="11.5%"></stop>
            <stop stop-color="#3E3E3D" offset="21.3%"></stop>
            <stop stop-color="#50504F" offset="35%"></stop>
            <stop stop-color="#6E6E6B" offset="51.2%"></stop>
            <stop stop-color="#979893" offset="69.1%"></stop>
            <stop stop-color="#CCCEC5" offset="88.2%"></stop>
            <stop stop-color="#F0F2E7" offset="100%"></stop>
        </linearGradient>
        <linearGradient x1="49.0652441%" y1="69.5913888%" x2="50.9102545%" y2="30.090301%" id="linearGradient-16">
            <stop stop-color="#373737" offset="11.5%"></stop>
            <stop stop-color="#3E3E3D" offset="21.3%"></stop>
            <stop stop-color="#50504F" offset="35%"></stop>
            <stop stop-color="#6E6E6B" offset="51.2%"></stop>
            <stop stop-color="#979893" offset="69.1%"></stop>
            <stop stop-color="#CCCEC5" offset="88.2%"></stop>
            <stop stop-color="#F0F2E7" offset="100%"></stop>
        </linearGradient>
        <linearGradient x1="49.9059844%" y1="94.6444329%" x2="50.19039%" y2="-14.7011167%" id="linearGradient-17">
            <stop stop-color="#6D6D6D" offset="0%"></stop>
            <stop stop-color="#BDBDBD" offset="71.5%"></stop>
            <stop stop-color="#C1C1C1" offset="74.8%"></stop>
        </linearGradient>
        <linearGradient x1="0.000385706781%" y1="50.0008543%" x2="100%" y2="50.0008543%" id="linearGradient-18">
            <stop stop-color="#494949" offset="0%"></stop>
            <stop stop-color="#606060" offset="53.8%"></stop>
            <stop stop-color="#6D6D6D" offset="81.4%"></stop>
        </linearGradient>
        <linearGradient x1="49.9113422%" y1="93.1375558%" x2="50.1414671%" y2="-5.90812071%" id="linearGradient-19">
            <stop stop-color="#525252" offset="0%"></stop>
            <stop stop-color="#A2A2A2" offset="54.6%"></stop>
            <stop stop-color="#C1C1C1" offset="74.8%"></stop>
        </linearGradient>
        <linearGradient x1="49.7157607%" y1="197.962719%" x2="50.0822728%" y2="7.02577626%" id="linearGradient-20">
            <stop stop-color="#373737" offset="11.5%"></stop>
            <stop stop-color="#3E3E3D" offset="21.3%"></stop>
            <stop stop-color="#50504F" offset="35%"></stop>
            <stop stop-color="#6E6E6B" offset="51.2%"></stop>
            <stop stop-color="#979893" offset="69.1%"></stop>
            <stop stop-color="#CCCEC5" offset="88.2%"></stop>
            <stop stop-color="#F0F2E7" offset="100%"></stop>
        </linearGradient>
        <linearGradient x1="49.9305066%" y1="94.5881947%" x2="50.0119278%" y2="6.70882988%" id="linearGradient-21">
            <stop stop-color="#373737" offset="11.5%"></stop>
            <stop stop-color="#3B3B3A" offset="26.1%"></stop>
            <stop stop-color="#454545" offset="39.1%"></stop>
            <stop stop-color="#575856" offset="51.6%"></stop>
            <stop stop-color="#71716E" offset="63.7%"></stop>
            <stop stop-color="#92938D" offset="75.5%"></stop>
            <stop stop-color="#BABBB3" offset="87.1%"></stop>
            <stop stop-color="#E8EAE0" offset="98.3%"></stop>
            <stop stop-color="#F0F2E7" offset="100%"></stop>
        </linearGradient>
        <linearGradient x1="49.9615347%" y1="92.1814666%" x2="50.0632808%" y2="2.64537756%" id="linearGradient-22">
            <stop stop-color="#373737" offset="11.5%"></stop>
            <stop stop-color="#3B3B3A" offset="26.1%"></stop>
            <stop stop-color="#454545" offset="39.1%"></stop>
            <stop stop-color="#575856" offset="51.6%"></stop>
            <stop stop-color="#71716E" offset="63.7%"></stop>
            <stop stop-color="#92938D" offset="75.5%"></stop>
            <stop stop-color="#BABBB3" offset="87.1%"></stop>
            <stop stop-color="#E8EAE0" offset="98.3%"></stop>
            <stop stop-color="#F0F2E7" offset="100%"></stop>
        </linearGradient>
        <linearGradient x1="-1.97411641%" y1="50.0008251%" x2="117.499686%" y2="50.0008251%" id="linearGradient-23">
            <stop stop-color="#E5E5E4" offset="0%"></stop>
            <stop stop-color="#D2D2D1" offset="5%"></stop>
            <stop stop-color="#9B9B9B" offset="20.1%"></stop>
            <stop stop-color="#737373" offset="33.3%"></stop>
            <stop stop-color="#5B5B5B" offset="43.6%"></stop>
            <stop stop-color="#525252" offset="50%"></stop>
            <stop stop-color="#5B5B5B" offset="56.4%"></stop>
            <stop stop-color="#737373" offset="66.7%"></stop>
            <stop stop-color="#9B9B9B" offset="79.9%"></stop>
            <stop stop-color="#D2D2D1" offset="95%"></stop>
            <stop stop-color="#E5E5E4" offset="100%"></stop>
        </linearGradient>
        <linearGradient x1="-3.65171067%" y1="49.9998436%" x2="217.281845%" y2="49.9998436%" id="linearGradient-24">
            <stop stop-color="#E5E5E4" offset="0%"></stop>
            <stop stop-color="#D2D2D1" offset="5%"></stop>
            <stop stop-color="#9B9B9B" offset="20.1%"></stop>
            <stop stop-color="#737373" offset="33.3%"></stop>
            <stop stop-color="#5B5B5B" offset="43.6%"></stop>
            <stop stop-color="#525252" offset="50%"></stop>
            <stop stop-color="#5B5B5B" offset="56.4%"></stop>
            <stop stop-color="#737373" offset="66.7%"></stop>
            <stop stop-color="#9B9B9B" offset="79.9%"></stop>
            <stop stop-color="#D2D2D1" offset="95%"></stop>
            <stop stop-color="#E5E5E4" offset="100%"></stop>
        </linearGradient>
        <linearGradient x1="-0.00155770804%" y1="50.0000789%" x2="99.9985236%" y2="50.0000789%" id="linearGradient-25">
            <stop stop-color="#F0F2E7" offset="25.2%"></stop>
            <stop stop-color="#DFE1D8" offset="37.8%"></stop>
            <stop stop-color="#919191" offset="100%"></stop>
        </linearGradient>
        <linearGradient x1="50.0003254%" y1="100.005686%" x2="50.0003254%" y2="0%" id="linearGradient-26">
            <stop stop-color="#525252" offset="0%"></stop>
            <stop stop-color="#4C4C4C" offset="25.9%"></stop>
            <stop stop-color="#393939" offset="62.2%"></stop>
            <stop stop-color="#252525" offset="92.3%"></stop>
        </linearGradient>
        <linearGradient x1="21.9031073%" y1="35.5217067%" x2="125.558303%" y2="89.6368812%" id="linearGradient-27">
            <stop stop-color="#E5E5E4" offset="0%"></stop>
            <stop stop-color="#D1D1D0" stop-opacity="0.864" offset="5.1%"></stop>
            <stop stop-color="#A4A4A4" stop-opacity="0.56" offset="17.4%"></stop>
            <stop stop-color="#818181" stop-opacity="0.319" offset="28.4%"></stop>
            <stop stop-color="#676767" stop-opacity="0.146" offset="37.9%"></stop>
            <stop stop-color="#585858" stop-opacity="0.039" offset="45.4%"></stop>
            <stop stop-color="#525252" stop-opacity="0" offset="50%"></stop>
            <stop stop-color="#F5F5F3" stop-opacity="0" offset="88.7%"></stop>
            <stop stop-color="#FCFCFA" stop-opacity="0" offset="89.5%"></stop>
        </linearGradient>
        <linearGradient x1="0%" y1="50.0003337%" x2="99.9966874%" y2="50.0003337%" id="linearGradient-28">
            <stop stop-color="#242424" offset="12.2%"></stop>
            <stop stop-color="#242424" stop-opacity="0.868" offset="40.5%"></stop>
            <stop stop-color="#242424" stop-opacity="0.484" offset="72.8%"></stop>
            <stop stop-color="#242424" stop-opacity="0" offset="100%"></stop>
        </linearGradient>
    </defs>
    <g id="Page-1" stroke="none" stroke-width="1" fill="none" fill-rule="evenodd">
        <g id="Fist" transform="translate(0.858000, 0.531477)">
            <g id="Platform" transform="translate(0.000000, 476.002523)" fill-rule="nonzero">
                <polygon id="Path" fill="url(#linearGradient-1)" points="428.907 15.713 391.603 9.34 418.557 9.34 403.385 0 86.21 0 63.395 14.046 68.653 16.009 58.893 16.817 29.013 35.213 460.581 35.213"></polygon>
                <polygon id="Path" fill="url(#linearGradient-2)" points="466.162 54.576 455.233 52.416 464.429 48.563 460.581 35.213 29.013 35.213 26.313 44.581 32.632 47.075 24.408 51.189 15.674 81.495 26.555 93.785 12.546 92.349 0 135.879 489.594 135.879"></polygon>
            </g>
            <polyline id="Shadow" fill="url(#linearGradient-3)" fill-rule="nonzero" points="124.43 492.011523 131.641 511.215523 407.138 511.215523 365.164 492.011523"></polyline>
            <g id="Cracks" transform="translate(85.730000, 511.215523)" fill="#000000" fill-rule="nonzero">
                <polygon id="Path" points="38.553 23.376 17.565 56.997 41.448 22.644 42.761 20.754 3.826 25.72 18.325 1.13686838e-13 15.95 1.13686838e-13 0 28.292"></polygon>
                <path d="M345.13,38.228 C339.907,44.256 329.458,57.113 329.458,57.113 C329.458,57.113 341.83,65.238 347.81,69.083 C342.251,64.991 336.687,60.905 331.058,56.916 C336.672,50.779 348.85,37.185 348.85,37.185 L316.119,26.417 L331.011,0 L328.636,0 L313.082,27.592 L345.13,38.228 Z" id="Path"></path>
                <polygon id="Path" points="243.718 88.119 251.558 69.466 241.224 88.537 253.188 100.666 256.093 100.666"></polygon>
                <polygon id="Path" points="96.953 67.231 76.852 76.32 66.068 62.493 84.99 40.807 63.349 62.371 75.298 77.692 62.466 100.666 64.836 100.666 77.299 78.352"></polygon>
                <polygon id="Path" points="171.338 53.856 153.157 38.345 168.853 1.13686838e-13 166.617 1.13686838e-13 150.65 39.008"></polygon>
            </g>
            <g id="Chips" transform="translate(12.546000, 485.342523)" fill-rule="nonzero">
                <polygon id="Path" fill="#252525" points="50.849 4.706 49.991 7.176 56.107 6.669"></polygon>
                <polyline id="Path" fill="#252525" points="453.616 45.236 446.929 41.298 442.687 43.076 453.616 45.236"></polyline>
                <polyline id="Path" fill="#252525" points="11.862 41.849 16.467 36.306 20.086 37.735 11.862 41.849"></polyline>
                <polyline id="Path" fill="#252525" points="-1.13686838e-13 83.009 8.102 77.774 14.009 84.445 -1.13686838e-13 83.009"></polyline>
                <polygon id="Path" fill="#252525" points="406.011 1.13686838e-13 405.055 4.442 379.057 1.13686838e-13"></polygon>
                <g id="Group" transform="translate(313.855000, 7.823000)">
                    <polygon id="Path" fill="#252525" points="21.651 18.05 5.87 0.443 0 0.443 7.226 18.05"></polygon>
                    <polygon id="Path" fill="#252525" points="7.226 18.05 19.853 33.475 21.651 18.05"></polygon>
                    <polyline id="Path" fill="#3D3D3D" points="19.853 33.475 2.244 0 5.87 0.443 21.651 18.05"></polyline>
                </g>
            </g>
            <g id="Group" transform="translate(58.646753, -0.000000)">
                <path d="M294.427247,260.810523 L77.874247,260.810523 C99.453247,345.510523 65.783247,492.010523 65.783247,492.010523 C65.783247,492.010523 102.225247,497.027523 185.221247,497.027523 C268.217247,497.027523 306.521247,492.010523 306.521247,492.010523 C306.521247,492.010523 272.848247,345.515523 294.427247,260.810523 Z" id="Path" fill="url(#linearGradient-4)" fill-rule="nonzero"></path>
                <g id="Clipped" transform="translate(62.227247, 258.810523)">
                    <mask id="mask-6" fill="white">
                        <use xlink:href="#path-5"></use>
                    </mask>
                    <g id="Path"></g>
                    <path d="M204.215,243.345 C204.215,243.345 196.615,80.603 234.334,-6.268 L13.514,-6.268 C51.232,80.603 43.632,243.345 43.632,243.345" id="Path" fill="url(#linearGradient-7)" fill-rule="nonzero" mask="url(#mask-6)"></path>
                </g>
                <path d="M138.585247,318.586523 C165.066247,317.758523 172.428247,330.080523 175.960247,349.097523 L184.194247,393.429523 L192.428247,349.097523 C195.959247,330.080523 203.322247,317.758523 229.802247,318.586523 C266.456247,319.733523 284.102247,303.100523 289.232247,290.706523 C290.269158,280.631544 292.005006,270.640808 294.427247,260.806523 L77.874247,260.806523 C80.4637599,271.338046 82.2789427,282.044985 83.305247,292.841523 C88.668247,304.925523 104.003247,319.671523 138.585247,318.586523 Z" id="Path" fill="url(#linearGradient-8)" fill-rule="nonzero"></path>
                <path d="M143.331247,299.996523 C156.781247,302.027523 168.851247,307.387523 173.546247,312.065523 C179.479247,317.977523 181.407247,329.626523 181.407247,329.626523 C181.407247,329.626523 182.225247,321.267523 189.157247,312.313523 C194.090247,305.941523 199.340247,302.247523 209.914247,300.539523 C200.780133,299.656225 191.853581,297.276104 183.492247,293.494523 C183.492247,293.494523 166.843247,300.047523 143.331247,299.996523 Z" id="Path" fill="#303030" fill-rule="nonzero"></path>
                <g transform="translate(77.870247, 260.810523)" fill-rule="nonzero" id="Path">
                    <path d="M2.877,13.392 C2.723,12.547 2.564,11.708 2.4,10.869 C2.564,11.707 2.723,12.548 2.877,13.392 Z" fill="url(#linearGradient-9)"></path>
                    <path d="M4.66,24.554 C4.666,24.6 4.681,24.643 4.688,24.688 C4.181,20.871 3.557,17.115 2.877,13.388 C3.547,17.07 4.159,20.783 4.66,24.554 Z" fill="url(#linearGradient-10)"></path>
                    <path d="M2.4,10.869 C1.683,7.193 0.909,3.553 0,5.68434189e-14 C0.909,3.553 1.684,7.193 2.4,10.869 Z" fill="url(#linearGradient-11)"></path>
                </g>
                <path d="M102.225247,90.1555234 C102.032247,87.1015234 98.944247,38.1645234 99.043247,29.9265234 C99.143247,21.4265234 87.350247,6.79852342 60.043247,6.42652342 C32.736247,6.05452342 16.610247,25.2315234 16.462247,37.4555234 L19.542247,98.4065234 C22.2909598,97.0977309 25.1569835,96.0510965 28.102247,95.2805234 C42.501247,91.4425234 73.343247,90.2915234 102.225247,90.1555234 Z" id="Path" fill="url(#linearGradient-12)" fill-rule="nonzero"></path>
                <path d="M166.101247,91.1865234 C172.161247,91.2695234 176.958247,96.6595234 176.726247,103.131523 C175.899247,126.243523 166.678247,175.158523 103.342247,174.284523 C117.700377,174.403299 131.919105,177.113435 145.314247,182.284523 L145.329247,182.284523 C176.837247,182.720523 186.514247,173.242523 188.091247,162.999523 C189.668247,152.756523 189.577247,40.0995234 189.685887,31.1785234 C189.793247,22.2575234 176.242247,0.442523423 144.733247,0.00752342258 C113.224247,-0.427476577 99.151247,21.0075234 99.043247,29.9275234 C98.943247,38.1655234 102.032247,87.1025234 102.225247,90.1565234 C135.460247,89.9985234 166.101247,91.1865234 166.101247,91.1865234 Z" id="Path" fill="url(#linearGradient-13)" fill-rule="nonzero"></path>
                <path d="M160.983247,151.041523 C150.316247,164.447523 132.618247,174.688523 103.342247,174.284523 C117.700377,174.403299 131.919105,177.113435 145.314247,182.284523 L145.329247,182.284523 C176.837247,182.720523 186.514247,173.242523 188.091247,162.999523 C188.532247,160.141523 188.841247,149.299523 189.062247,134.976523 C186.197247,142.333523 178.366247,148.711523 160.983247,151.041523 Z" id="Path" fill="url(#linearGradient-14)" fill-rule="nonzero"></path>
                <path d="M28.102247,95.2715234 C42.502247,91.4385234 73.343247,90.2875234 102.225247,90.1515234 C102.195247,89.6745234 102.094247,88.0785234 101.946247,85.6935234 C101.191247,85.6935234 100.446247,85.6935234 99.685247,85.6995234 C69.817247,85.8355234 37.924247,86.9865234 23.035247,90.8195234 C21.690247,91.1655234 20.446247,91.5675234 19.218247,91.9805234 L19.542247,98.3975234 C22.2909598,97.0887309 25.1569835,96.0420965 28.102247,95.2715234 L28.102247,95.2715234 Z" id="Path" fill="url(#linearGradient-15)" fill-rule="nonzero"></path>
                <path d="M176.726247,98.6795234 C176.890019,95.6288252 175.816263,92.6410456 173.74803,90.3924917 C171.679797,88.1439379 168.791976,86.8247453 165.738247,86.7335234 C165.738247,86.7335234 135.426247,85.6015234 101.946247,85.6975234 C102.094247,88.0825234 102.195247,89.6785234 102.225247,90.1555234 C135.460247,89.9985234 166.101247,91.1865234 166.101247,91.1865234 C171.417399,91.3983116 175.819998,95.3844824 176.557247,100.653523 C176.622247,100.067523 176.695247,99.4835234 176.718247,98.8855234 L176.726247,98.6795234 Z" id="Path" fill="url(#linearGradient-16)" fill-rule="nonzero"></path>
                <path d="M343.674247,54.9075234 C342.760247,42.4285234 335.325247,21.0525234 308.374247,18.4185234 C283.419247,15.9785234 268.201247,35.3185234 268.107247,43.1265234 C268.007247,51.6265234 264.375247,155.516523 262.724972,164.026523 C262.654247,169.834523 276.354247,179.900523 298.936247,180.211523 C321.518247,180.522523 329.153247,172.453523 331.605247,164.977523 C336.313247,150.626523 345.297247,77.0515234 343.674247,54.9075234 Z" id="Path" fill="url(#linearGradient-17)" fill-rule="nonzero"></path>
                <path d="M264.120247,145.177523 C263.595247,154.970523 263.108247,162.062523 262.726972,164.028523 C262.656247,169.836523 276.356247,180.274523 298.938247,180.586523 C321.520247,180.898523 329.155247,172.455523 331.607247,164.979523 C332.566858,161.72049 333.341757,158.409892 333.928247,155.063523 C328.058247,158.683523 319.108247,161.143523 305.428247,160.954523 C282.779247,160.641523 267.824247,151.923523 264.120247,145.177523 Z" id="Path" fill="url(#linearGradient-18)" fill-rule="nonzero"></path>
                <path d="M229.291247,4.57152342 C201.983247,4.19452342 189.791247,22.6765234 189.685247,31.1815234 C189.577247,40.1025234 189.668247,152.758523 188.090938,163.002523 C188.021247,168.810523 199.822247,183.040523 227.129247,183.417523 C254.436247,183.794523 261.077247,172.544523 262.729247,164.032523 C264.381247,155.520523 268.008247,51.6325234 268.111247,43.1325234 C268.214247,34.6325234 261.663247,5.01452342 229.291247,4.57152342 Z" id="Path" fill="url(#linearGradient-19)" fill-rule="nonzero"></path>
                <path d="M227.054247,156.321523 C207.014247,156.044523 194.731247,148.855523 188.936247,142.311523 C188.727247,152.911523 188.454247,160.653523 188.092938,162.998523 C188.023247,168.806523 199.824247,183.036523 227.131247,183.413523 C254.438247,183.790523 261.079247,172.540523 262.731247,164.028523 C263.186247,161.677523 263.793247,152.037523 264.431247,139.159523 C261.396247,147.571523 252.630247,156.671523 227.054247,156.321523 Z" id="Path" fill="#494949" fill-rule="nonzero"></path>
                <g transform="translate(16.462247, 0.000000)" fill-rule="nonzero" id="Path">
                    <path d="M43.581,39.0275234 C65.355,37.6325234 78.601,46.0985234 83.536,52.5885234 C82.977,42.2985234 82.543,33.0965234 82.581,29.9265234 C82.681,21.4265234 70.888,6.79852342 43.581,6.42652342 C16.274,6.05452342 0.148,25.2315234 -1.13686838e-13,37.4555234 L1.214,61.4655234 C4.674,53.0715234 19.707,40.5565234 43.581,39.0275234 Z" fill="#FDFDFC"></path>
                    <path d="M77.734,90.2235234 C80.417,90.1925234 83.099,90.1675234 85.763,90.1555234 C85.57,87.1015234 82.482,38.1645234 82.581,29.9265234 C82.641,24.9685234 78.622,17.9465234 69.881,12.8655234 C73.258,17.2295234 74.851,21.8105234 74.813,25.4325234 C74.727,33.5335234 76.95,75.6815234 77.734,90.2235234 Z" fill="url(#linearGradient-20)"></path>
                    <path d="M128.271,35.8155234 C158.542,35.8215234 172.199,52.2895234 173.134,59.9425234 C173.177,45.0165234 173.191,33.7555234 173.223628,31.1775234 C173.33,22.2565234 159.78,0.441523423 128.271,0.00652342258 C96.762,-0.428476577 82.689,21.0065234 82.581,29.9265234 C82.538,33.4665234 83.081,44.5265234 83.736,56.2265234 C88.022,48.1715234 104.359,35.8105234 128.271,35.8155234 Z" fill="#E5E5E4"></path>
                    <path d="M156.556,7.83652342 C163.245,14.7685234 166.368,22.5635234 166.316,27.1755234 C166.208,36.8035234 166.3,158.384523 164.723,169.439523 C164.408419,171.699121 163.710749,173.888512 162.66,175.913523 C168.342,172.394523 170.892,167.787523 171.629,162.998523 C173.206,152.754523 173.115,40.0985234 173.223,31.1775234 C173.292,25.6335234 168.071,15.1145234 156.556,7.83652342 Z" fill="url(#linearGradient-21)"></path>
                    <path d="M291.914,48.4945234 C314.295,50.2445234 324.823,65.7185234 326.887,76.0375234 C327.413875,69.0068498 327.5224,61.9510751 327.212,54.9075234 C326.298,42.4285234 318.863,21.0525234 291.912,18.4185234 C266.957,15.9785234 251.739,35.3185234 251.645,43.1265234 C251.618,45.3505234 251.345,54.1265234 250.938,65.9825234 C255.019,58.2805234 268.503,46.6635234 291.914,48.4945234 Z" fill="#FDFDFC"></path>
                    <path d="M212.829,39.0285234 C239.534,39.1735234 248.647,55.5705234 250.969,65.1685234 C251.364,53.7215234 251.621,45.2995234 251.647,43.1265234 C251.747,34.6265234 245.201,5.01452342 212.829,4.56752342 C185.521,4.19052342 173.329,22.6725234 173.223,31.1775234 C173.193,33.6515234 173.178,44.1165234 173.139,58.1475234 C177.258,50.1805234 189.98,38.9045234 212.829,39.0285234 Z" fill="#E5E5E4"></path>
                    <path d="M240.056,15.4715234 C242.416968,21.1988869 243.726886,27.3047222 243.923,33.4965234 C243.823,42.8815234 240.271,157.528523 238.657,166.922523 C237.891587,172.093708 235.404571,176.855644 231.598,180.438523 C241.798,176.588523 245.164,169.706523 246.265,164.026523 C247.915,155.514523 251.544,51.6265234 251.647,43.1265234 C251.71,37.9455234 249.264,24.9545234 240.056,15.4715234 Z" fill="url(#linearGradient-22)"></path>
                </g>
                <path d="M262.727247,164.028523 C261.077247,172.540523 254.437247,183.790523 227.127247,183.413523 C199.817247,183.036523 188.019247,168.806523 188.089247,162.998523 C186.512247,173.241523 176.835247,182.719523 145.327247,182.283523 L145.312247,182.283523 C131.917105,177.112435 117.698377,174.402299 103.340247,174.283523 C166.676247,175.157523 175.897247,126.242523 176.724247,103.130523 C176.956247,96.6585234 172.159247,91.2685234 166.099247,91.1855234 C166.099247,91.1855234 135.458247,89.9975234 102.223247,90.1545234 C73.341247,90.2905234 42.499247,91.4415234 28.100247,95.2745234 C25.1549835,96.0450965 22.2889598,97.0917309 19.540247,98.4005234 L19.540247,98.3235234 L19.528247,98.3695234 C-0.0667530131,107.776523 -2.19175301,129.047523 1.49124699,171.954523 C5.65324699,220.454523 38.011247,257.807523 86.461247,285.234523 C134.911247,312.661523 183.493247,293.493523 183.493247,293.493523 C183.493247,293.493523 223.703247,313.886523 264.837247,287.693523 C305.402247,261.866523 334.923247,231.380523 324.822247,174.200523 C319.858247,177.823523 311.846247,180.387523 298.939247,180.209523 C276.354247,179.902523 262.654247,169.836523 262.727247,164.028523 Z" id="Path" fill="url(#linearGradient-23)" fill-rule="nonzero"></path>
                <path d="M312.154247,184.651523 C313.454247,228.251523 297.937247,257.277523 274.854247,281.037523 C308.812247,257.421523 332.214247,228.673523 325.611247,179.785523 C322.411247,181.956523 317.991247,183.674523 312.199247,184.703523 C312.197247,184.687523 312.154247,184.671523 312.154247,184.651523 Z" id="Path" fill="#FCFCFA" fill-rule="nonzero"></path>
                <path d="M103.342247,174.284523 C166.678247,175.158523 175.899247,126.243523 176.726247,103.131523 C176.958247,96.6595234 172.161247,91.2695234 166.101247,91.1865234 C166.101247,91.1865234 135.460247,89.9985234 102.225247,90.1555234 C73.343247,90.2915234 42.501247,91.4425234 28.102247,95.2755234 C25.1569835,96.0460965 22.2909598,97.0927309 19.542247,98.4015234 L19.542247,98.3245234 L19.530247,98.3705234 C-0.0647530131,107.777523 -2.18975301,129.048523 1.49324699,171.955523 C1.56024699,172.743523 1.69324699,173.502523 1.78124699,174.284523 L103.342247,174.284523 L103.342247,174.284523 Z" id="Path" fill="url(#linearGradient-24)" fill-rule="nonzero"></path>
                <path d="M166.101247,91.1865234 C166.101247,91.1865234 135.460247,89.9985234 102.225247,90.1555234 C73.343247,90.2915234 42.501247,91.4425234 28.102247,95.2755234 C25.1569835,96.0460965 22.2909598,97.0927309 19.542247,98.4015234 L19.542247,98.3245234 L19.530247,98.3705234 C-0.0647530131,107.777523 -2.18975301,129.048523 1.49324699,171.955523 C5.25924699,215.832523 32.152247,250.555523 73.111247,277.093523 C41.424247,247.001523 21.903247,210.093523 19.184247,173.646523 C16.465247,137.199523 37.104247,129.494523 61.146247,128.746523 C73.920247,128.346523 88.302247,128.183523 102.228247,128.146523 C114.970247,128.114523 133.028247,128.189523 150.465247,128.295523 C164.484972,128.382858 176.072755,117.385653 176.718247,103.380523 L176.729247,103.130523 C176.954247,96.6595234 172.161247,91.2715234 166.101247,91.1865234 Z" id="Path" fill="url(#linearGradient-25)" fill-rule="nonzero"></path>
                <path d="M262.727247,164.028523 C261.077247,172.540523 254.437247,183.790523 227.127247,183.413523 C199.817247,183.036523 188.019247,168.806523 188.089247,162.998523 C186.512247,173.241523 176.835247,182.719523 145.327247,182.283523 L145.312247,182.283523 L145.284247,182.273523 C186.771247,198.411523 204.939247,233.350523 204.939247,233.350523 C204.939247,233.350523 239.176247,188.970523 298.939247,180.209523 C276.354247,179.902523 262.654247,169.836523 262.727247,164.028523 Z" id="Path" fill="url(#linearGradient-26)" fill-rule="nonzero"></path>
                <path d="M298.938247,180.213523 C293.299465,181.04385 287.716219,182.215333 282.219247,183.721523 C287.600294,185.016144 293.110896,185.695827 298.645247,185.747523 C303.185375,185.82699 307.72286,185.477437 312.197247,184.703523 C312.144247,182.870523 312.068247,181.133523 311.955247,179.247523 C307.657996,179.992149 303.298339,180.315682 298.938247,180.213523 Z" id="Path" fill="#494949" fill-rule="nonzero"></path>
                <path d="M324.821247,174.204523 C320.966205,176.831321 316.568481,178.555068 311.955247,179.247523 C312.063247,181.055523 312.144247,182.936523 312.197247,184.703523 C318.029247,183.666523 322.475247,181.935523 325.683247,179.742523 C325.436247,177.923523 325.154247,176.079523 324.821247,174.204523 Z" id="Path" fill="#6D6D6D" fill-rule="nonzero"></path>
                <path d="M187.846247,175.171523 C194.252247,181.778523 206.899247,188.671523 226.999247,188.951523 C249.505247,189.262523 259.599247,182.602523 264.167247,175.237523 C267.905247,178.498523 274.067247,181.722523 282.219247,183.726523 C287.716219,182.220333 293.299465,181.04885 298.938247,180.218523 C276.356247,179.907523 262.656247,169.841523 262.727247,164.033523 C261.077247,172.545523 254.437247,183.795523 227.127247,183.418523 C199.817247,183.041523 188.019247,168.811523 188.089247,163.003523 C186.512247,173.246523 176.835247,182.724523 145.327247,182.288523 L145.312247,182.288523 L145.285247,182.278523 C149.176008,183.813719 152.979119,185.562376 156.677247,187.516523 C174.292247,186.271523 183.502247,181.371523 187.846247,175.171523 Z" id="Path" fill="#242424" fill-rule="nonzero"></path>
                <path d="M204.941247,233.354523 C204.941247,233.354523 174.776247,175.270523 103.341247,174.284523 L55.291247,174.284523 C55.291247,174.284523 60.919247,213.760523 119.716247,231.040523 C179.173247,248.514523 204.941247,233.354523 204.941247,233.354523" id="Path" fill="url(#linearGradient-27)" fill-rule="nonzero"></path>
                <path d="M110.031247,163.126523 L55.291247,174.284523 L103.342247,174.284523 C159.449247,175.059523 173.080247,136.772523 176.042247,111.952523 C169.454247,133.562523 151.893247,155.157523 110.031247,163.126523 Z" id="Path" fill="url(#linearGradient-28)" fill-rule="nonzero"></path>
                <g transform="translate(122.993247, 378.847523)" fill="#494949" fill-rule="nonzero" id="Path">
                    <polygon points="50.42 92.386 44.53 92.307 75.911 0.079 81.686 0"></polygon>
                    <polygon points="117.677 43.373 83.468 34.67 81.608 40.165 106.875 45.579 77.623 51.938 75.428 58.427 117.678 47.752 126.314 45.57"></polygon>
                    <polygon points="8.637 49.013 42.846 57.716 44.706 52.221 19.44 46.808 48.691 40.448 50.887 33.96 8.636 44.634 -1.13686838e-13 46.816"></polygon>
                </g>
            </g>
        </g>
    </g>
</svg>