<?xml version="1.0" encoding="UTF-8"?>
<svg width="451px" height="622px" viewBox="0 0 451 622" version="1.1" xmlns="http://www.w3.org/2000/svg" xmlns:xlink="http://www.w3.org/1999/xlink">
    <title>Artboard</title>
    <defs>
        <linearGradient x1="-82.3395703%" y1="50%" x2="100.092459%" y2="50%" id="linearGradient-1">
            <stop stop-color="#E5E5E4" offset="0%"></stop>
            <stop stop-color="#EBEBEA" offset="36.3%"></stop>
            <stop stop-color="#FDFDFD" offset="87%"></stop>
            <stop stop-color="#FFFFFF" offset="92.3%"></stop>
        </linearGradient>
        <linearGradient x1="-5441.95%" y1="50.0185805%" x2="3249.65%" y2="50.0185805%" id="linearGradient-2">
            <stop stop-color="#E5E5E4" offset="0%"></stop>
            <stop stop-color="#EBEBEA" offset="36.3%"></stop>
            <stop stop-color="#FDFDFD" offset="87%"></stop>
            <stop stop-color="#FFFFFF" offset="92.3%"></stop>
        </linearGradient>
        <linearGradient x1="5499.25%" y1="50%" x2="-3192.25%" y2="50%" id="linearGradient-3">
            <stop stop-color="#E5E5E4" offset="0%"></stop>
            <stop stop-color="#EBEBEA" offset="36.3%"></stop>
            <stop stop-color="#FDFDFD" offset="87%"></stop>
            <stop stop-color="#FFFFFF" offset="92.3%"></stop>
        </linearGradient>
        <linearGradient x1="182.384409%" y1="50%" x2="-0.168132436%" y2="50%" id="linearGradient-4">
            <stop stop-color="#E5E5E4" offset="0%"></stop>
            <stop stop-color="#EBEBEA" offset="36.3%"></stop>
            <stop stop-color="#FDFDFD" offset="87%"></stop>
            <stop stop-color="#FFFFFF" offset="92.3%"></stop>
        </linearGradient>
        <linearGradient x1="50.1036269%" y1="1055.50112%" x2="50.1036269%" y2="-118.558499%" id="linearGradient-5">
            <stop stop-color="#E5E5E4" offset="0%"></stop>
            <stop stop-color="#DFDFDE" offset="16.1%"></stop>
            <stop stop-color="#CCCCCC" offset="38.8%"></stop>
            <stop stop-color="#AFAFAE" offset="65.1%"></stop>
            <stop stop-color="#919191" offset="86.5%"></stop>
        </linearGradient>
        <linearGradient x1="50%" y1="1220.26409%" x2="50%" y2="0%" id="linearGradient-6">
            <stop stop-color="#E5E5E4" offset="0%"></stop>
            <stop stop-color="#DFDFDE" offset="16.1%"></stop>
            <stop stop-color="#CCCCCC" offset="38.8%"></stop>
            <stop stop-color="#AFAFAE" offset="65.1%"></stop>
            <stop stop-color="#919191" offset="86.5%"></stop>
        </linearGradient>
        <linearGradient x1="50%" y1="100%" x2="50%" y2="0.00141448718%" id="linearGradient-7">
            <stop stop-color="#E5E5E4" offset="0%"></stop>
            <stop stop-color="#DFDFDE" offset="16.1%"></stop>
            <stop stop-color="#CCCCCC" offset="38.8%"></stop>
            <stop stop-color="#AFAFAE" offset="65.1%"></stop>
            <stop stop-color="#919191" offset="86.5%"></stop>
        </linearGradient>
        <linearGradient x1="50.2095948%" y1="1498.90809%" x2="50.2095948%" y2="0%" id="linearGradient-8">
            <stop stop-color="#E5E5E4" offset="0%"></stop>
            <stop stop-color="#DFDFDE" offset="16.1%"></stop>
            <stop stop-color="#CCCCCC" offset="38.8%"></stop>
            <stop stop-color="#AFAFAE" offset="65.1%"></stop>
            <stop stop-color="#919191" offset="86.5%"></stop>
        </linearGradient>
        <linearGradient x1="50%" y1="1740.9922%" x2="50%" y2="-159.948911%" id="linearGradient-9">
            <stop stop-color="#E5E5E4" offset="0%"></stop>
            <stop stop-color="#DFDFDE" offset="16.1%"></stop>
            <stop stop-color="#CCCCCC" offset="38.8%"></stop>
            <stop stop-color="#AFAFAE" offset="65.1%"></stop>
            <stop stop-color="#919191" offset="86.5%"></stop>
        </linearGradient>
        <linearGradient x1="-150.816114%" y1="50.000884%" x2="100.720611%" y2="50.000884%" id="linearGradient-10">
            <stop stop-color="#E5E5E4" offset="0%"></stop>
            <stop stop-color="#EBEBEA" offset="36.3%"></stop>
            <stop stop-color="#FDFDFD" offset="87%"></stop>
            <stop stop-color="#FFFFFF" offset="92.3%"></stop>
        </linearGradient>
        <linearGradient x1="251.566181%" y1="49.9990339%" x2="-1.21862548%" y2="49.9990339%" id="linearGradient-11">
            <stop stop-color="#E5E5E4" offset="0%"></stop>
            <stop stop-color="#EBEBEA" offset="36.3%"></stop>
            <stop stop-color="#FDFDFD" offset="87%"></stop>
            <stop stop-color="#FFFFFF" offset="92.3%"></stop>
        </linearGradient>
        <linearGradient x1="49.9968154%" y1="99.9972305%" x2="49.9968154%" y2="-0.00260717979%" id="linearGradient-12">
            <stop stop-color="#C1C1C1" offset="0%"></stop>
            <stop stop-color="#F0F2E7" offset="74.8%"></stop>
        </linearGradient>
        <linearGradient x1="0.00328425201%" y1="49.9926837%" x2="100.003284%" y2="49.9926837%" id="linearGradient-13">
            <stop stop-color="#6D6D6D" offset="12.2%"></stop>
            <stop stop-color="#828282" offset="40.3%"></stop>
            <stop stop-color="#A7A7A7" offset="80.6%"></stop>
        </linearGradient>
        <linearGradient x1="0.00452197113%" y1="50.0184652%" x2="100.002261%" y2="50.0184652%" id="linearGradient-14">
            <stop stop-color="#E5E5E4" stop-opacity="0" offset="0%"></stop>
            <stop stop-color="#DDDDDC" stop-opacity="0.134" offset="7.6%"></stop>
            <stop stop-color="#CACAC9" stop-opacity="0.441" offset="26.9%"></stop>
            <stop stop-color="#BBBBBA" stop-opacity="0.683" offset="45.1%"></stop>
            <stop stop-color="#B0B0B0" stop-opacity="0.857" offset="61.5%"></stop>
            <stop stop-color="#A9A9A9" stop-opacity="0.962" offset="75.8%"></stop>
            <stop stop-color="#A7A7A7" offset="86.1%"></stop>
        </linearGradient>
        <linearGradient x1="49.9995194%" y1="99.9974715%" x2="49.9995194%" y2="-0.00174351991%" id="linearGradient-15">
            <stop stop-color="#C1C1C1" offset="0%"></stop>
            <stop stop-color="#F0F2E7" offset="62.8%"></stop>
        </linearGradient>
        <linearGradient x1="49.9965269%" y1="99.9995579%" x2="49.9965269%" y2="4.05693082e-07%" id="linearGradient-16">
            <stop stop-color="#C1C1C1" offset="0%"></stop>
            <stop stop-color="#F0F2E7" offset="74.8%"></stop>
        </linearGradient>
        <linearGradient x1="50.0003054%" y1="100.005333%" x2="50.0003054%" y2="0%" id="linearGradient-17">
            <stop stop-color="#E5E5E4" offset="0%"></stop>
            <stop stop-color="#DFDFDE" offset="17.2%"></stop>
            <stop stop-color="#CCCCCC" offset="41.4%"></stop>
            <stop stop-color="#AFAFAE" offset="69.5%"></stop>
            <stop stop-color="#919191" offset="92.3%"></stop>
        </linearGradient>
        <linearGradient x1="0%" y1="50.0044663%" x2="100%" y2="50.0044663%" id="linearGradient-18">
            <stop stop-color="#C1C1C1" offset="0%"></stop>
            <stop stop-color="#E5E5E4" offset="100%"></stop>
        </linearGradient>
        <linearGradient x1="50%" y1="99.9994558%" x2="50%" y2="0%" id="linearGradient-19">
            <stop stop-color="#E5E5E4" offset="0%"></stop>
            <stop stop-color="#EBEBEA" offset="36.3%"></stop>
            <stop stop-color="#FDFDFD" offset="87%"></stop>
            <stop stop-color="#FFFFFF" offset="92.3%"></stop>
        </linearGradient>
        <linearGradient x1="0%" y1="49.9914678%" x2="100%" y2="49.9914678%" id="linearGradient-20">
            <stop stop-color="#919191" offset="15.5%"></stop>
            <stop stop-color="#959595" offset="18.6%"></stop>
            <stop stop-color="#E5E5E4" offset="86.1%"></stop>
        </linearGradient>
    </defs>
    <g id="Artboard" stroke="none" stroke-width="1" fill="none" fill-rule="evenodd">
        <g id="Fist" transform="translate(0.000000, 91.000000)" fill-rule="nonzero">
            <path d="M314.267,278.444 L83.507,278.444 C106.507,368.752 70.623,499.929 70.623,499.929 C70.623,499.929 109.457,530.288 197.898,530.288 C286.339,530.288 327.155,499.929 327.155,499.929 C327.155,499.929 291.276,368.752 314.267,278.444 Z" id="Path" fill="#E5E5E4"></path>
            <g id="Group" transform="translate(70.000000, 278.000000)">
                <path d="M18.498,26.765 C30.098,114.184 0.623,221.929 0.623,221.929 C0.623,221.929 11.295,230.252 34.137,238.183 C43.214,181.805 49.502,116.146 48.06,57.003 C45.888,56.447 43.748,55.824 41.66,55.109 C29.2114151,50.7857046 20.2548551,39.8253066 18.498,26.765 L18.498,26.765 Z" id="Path" fill="url(#linearGradient-1)"></path>
                <path d="M16.567,14.722 C16.403,13.822 16.234,12.922 16.06,12.031 C16.2346667,12.925 16.4036667,13.822 16.567,14.722 Z" id="Path" fill="url(#linearGradient-2)"></path>
                <path d="M242.124,9.877 C241.958,10.691 241.817,11.521 241.659,12.341 C241.818,11.521 241.957,10.691 242.124,9.877 Z" id="Path" fill="url(#linearGradient-3)"></path>
                <path d="M240.331,19.779 C240.287,20.056 240.231,20.324 240.184,20.602 C238.484,31.465 232.184,41.18 222.517,46.414 C222.173,46.6 221.826,46.784 221.476,46.966 L221.176,47.124 C217.507078,49.0146536 213.740453,50.7093676 209.892,52.201 C207.977,112.461 214.292,179.993 223.592,237.835 C246.261,230.011 257.16,221.929 257.16,221.929 C257.16,221.929 226.106,108.33 240.331,19.779 Z" id="Path" fill="url(#linearGradient-4)"></path>
                <path d="M18.467,26.622 C18.473,26.671 18.49,26.716 18.496,26.765 C17.956,22.695 17.291,18.691 16.566,14.722 C17.283,18.643 17.935,22.6 18.467,26.622 Z" id="Path" fill="url(#linearGradient-5)"></path>
                <path d="M16.061,12.031 C15.296,8.113 14.472,4.231 13.507,0.444 C14.467,4.231 15.298,8.112 16.061,12.031 Z" id="Path" fill="url(#linearGradient-6)"></path>
                <path d="M43.836,0.444 C46.2718398,19.2061218 47.6819366,38.0871972 48.06,57.003 C55.3067999,58.8570624 62.7619335,59.7715615 70.242,59.724 L71.198,59.717 C91.7882304,59.5698117 109.481909,74.2961646 113.075,94.571 L121.453,141.836 L129.711,95.236 C133.099206,75.6808751 149.710228,61.1645797 169.543,60.427 C183.363031,60.0127577 197.009452,57.2296928 209.888,52.199 C210.360609,34.8890738 211.713692,17.6144066 213.942,0.442 L43.836,0.444 Z" id="Path" fill="url(#linearGradient-7)"></path>
                <path d="M83.26,42.222 C97.592,44.387 108.073,50.101 113.075,55.089 C119.398,61.389 121.453,73.812 121.453,73.812 C121.453,73.812 122.324,64.9 129.711,55.354 C134.968,48.56 142.945,44.622 154.211,42.801 C137.331,40.993 126.056,35.29 126.056,35.29 C126.056,35.29 108.315,42.276 83.26,42.222 Z" id="Path" fill="#6D6D6D"></path>
                <path d="M244.267,0.444 C243.479,3.544 242.774,6.692 242.12,9.877 C242.776,6.691 243.483,3.54 244.267,0.444 Z" id="Path" fill="url(#linearGradient-8)"></path>
                <path d="M241.659,12.341 C241.183,14.801 240.733,17.276 240.331,19.779 C240.731,17.275 241.185,14.8 241.659,12.341 Z" id="Path" fill="url(#linearGradient-9)"></path>
                <path d="M13.507,0.444 C14.472,4.231 15.296,8.113 16.061,12.031 C16.235,12.931 16.404,13.821 16.568,14.722 C17.293,18.691 17.958,22.695 18.498,26.765 C20.2550281,39.8255532 29.212025,50.7860126 41.661,55.109 C43.748,55.824 45.888,56.447 48.061,57.003 C47.6829366,38.0871972 46.2728398,19.2061218 43.837,0.444 L13.507,0.444 Z" id="Path" fill="url(#linearGradient-10)"></path>
                <path d="M13.507,0.444 C14.472,4.231 15.296,8.113 16.061,12.031 C16.235,12.931 16.404,13.821 16.568,14.722 C17.293,18.691 17.958,22.695 18.498,26.765 C20.2550281,39.8255532 29.212025,50.7860126 41.661,55.109 C43.748,55.824 45.888,56.447 48.061,57.003 C47.6829366,38.0871972 46.2728398,19.2061218 43.837,0.444 L13.507,0.444 Z" id="Path" fill="#CACAC9"></path>
                <path d="M221.476,46.966 C221.826,46.784 222.173,46.6 222.517,46.414 C232.186,41.18 238.485,31.465 240.184,20.602 C240.227,20.324 240.284,20.056 240.331,19.779 C240.731,17.279 241.183,14.801 241.659,12.341 C241.817,11.521 241.959,10.691 242.124,9.877 C242.778,6.692 243.483,3.54 244.271,0.444 L213.942,0.444 C211.713692,17.6164066 210.360609,34.8910738 209.888,52.201 C213.736453,50.7093676 217.503078,49.0146536 221.172,47.124 L221.476,46.966 Z" id="Path" fill="url(#linearGradient-11)"></path>
                <path d="M221.476,46.966 C221.826,46.784 222.173,46.6 222.517,46.414 C232.186,41.18 238.485,31.465 240.184,20.602 C240.227,20.324 240.284,20.056 240.331,19.779 C240.731,17.279 241.183,14.801 241.659,12.341 C241.817,11.521 241.959,10.691 242.124,9.877 C242.778,6.692 243.483,3.54 244.271,0.444 L213.942,0.444 C211.713692,17.6164066 210.360609,34.8910738 209.888,52.201 C213.736453,50.7093676 217.503078,49.0146536 221.172,47.124 L221.476,46.966 Z" id="Path" fill="#CACAC9"></path>
            </g>
            <path d="M109.457,96.5 C109.25,93.244 105.957,41.07 106.066,32.287 C106.175,23.219 93.605,7.629 64.506,7.227 C35.407,6.825 18.223,27.276 18.065,40.308 L21.348,105.292 C24.2766552,103.896405 27.3305413,102.780452 30.469,101.959 C45.813,97.872 78.678,96.645 109.457,96.5 Z" id="Path" fill="#F0F2E7"></path>
            <path d="M177.523,97.6 C183.982,97.689 189.094,103.435 188.847,110.336 C187.965,134.976 178.139,187.127 110.647,186.195 C125.947829,186.323209 141.099704,189.213943 155.373,194.728 L155.389,194.728 C188.965,195.192 199.277,185.087 200.957,174.166 C202.637,163.245 202.54,43.137 202.657705,33.625 C202.774,24.113 188.332,0.856 154.757,0.393 C121.182,-0.07 106.183,22.78 106.069,32.293 C105.962,41.076 109.253,93.25 109.46,96.506 C144.872,96.333 177.523,97.6 177.523,97.6 Z" id="Path" fill="url(#linearGradient-12)"></path>
            <path d="M172.067,161.414 C160.7,175.706 141.84,186.625 110.644,186.194 C125.944829,186.322209 141.096704,189.212943 155.37,194.727 L155.386,194.727 C188.962,195.191 199.274,185.086 200.954,174.165 C201.423,171.118 201.754,159.565 201.989,144.289 C198.939,152.13 190.594,158.929 172.067,161.414 Z" id="Path" fill="url(#linearGradient-13)"></path>
            <path d="M30.467,101.959 C45.811,97.872 78.676,96.645 109.455,96.5 C109.423,95.991 109.315,94.29 109.155,91.748 C108.355,91.748 107.555,91.748 106.746,91.748 C74.918,91.893 40.932,93.12 25.065,97.207 C23.632,97.576 22.306,98.007 20.998,98.445 L21.344,105.287 C24.2734757,103.893 27.3280319,102.778722 30.467,101.959 Z" id="Path" fill="url(#linearGradient-14)"></path>
            <path d="M188.846,105.588 C189.021472,102.336285 187.877768,99.1512778 185.673797,96.7539965 C183.469827,94.3567151 180.391975,92.9498915 177.137,92.852 C177.137,92.852 144.837,91.645 109.159,91.752 C109.317,94.294 109.425,95.995 109.459,96.504 C144.874,96.337 177.525,97.604 177.525,97.604 C183.190013,97.8302761 187.881275,102.07818 188.667,107.693 C188.736,107.068 188.814,106.445 188.839,105.807 L188.846,105.588 Z" id="Path" fill="#A7A7A7"></path>
            <path d="M366.75,58.92 C365.776,45.62 357.85,22.826 329.135,20.02 C302.543,17.42 286.327,38.043 286.226,46.363 C286.117,55.43 282.249,166.187 280.490712,175.263 C280.416,181.456 295.015,192.187 319.078,192.52 C343.141,192.853 351.278,184.248 353.891,176.277 C358.906,160.972 368.479,82.529 366.75,58.92 Z" id="Path" fill="url(#linearGradient-15)"></path>
            <path d="M281.975,155.162 C281.416,165.603 280.897,173.162 280.490712,175.262 C280.416,181.455 295.015,192.186 319.078,192.519 C343.141,192.852 351.278,184.247 353.891,176.276 C354.914667,172.800062 355.741315,169.269112 356.367,165.7 C350.112,169.559 340.575,172.182 325.995,171.98 C301.859,171.649 285.923,162.354 281.975,155.162 Z" id="Path" fill="#A7A7A7"></path>
            <path d="M244.86,5.25 C215.76,4.85 202.76,24.55 202.66,33.62 C202.545,43.132 202.643,163.24 200.959675,174.161 C200.886,180.354 213.46,195.525 242.56,195.927 C271.66,196.329 278.736,184.334 280.494,175.259 C282.252,166.184 286.12,55.427 286.229,46.359 C286.338,37.291 279.357,5.727 244.86,5.25 Z" id="Path" fill="url(#linearGradient-16)"></path>
            <path d="M242.475,167.042 C221.12,166.748 208.03,159.083 201.855,152.106 C201.633,163.406 201.342,171.662 200.954675,174.161 C200.881,180.354 213.455,195.525 242.555,195.927 C271.655,196.329 278.731,184.334 280.489,175.259 C280.974,172.759 281.621,162.476 282.304,148.745 C279.072,157.718 269.732,167.419 242.475,167.042 Z" id="Path" fill="#A7A7A7"></path>
            <g id="Group" transform="translate(18.000000, 0.000000)">
                <path d="M46.506,41.99 C69.706,40.503 83.824,49.528 89.083,56.448 C88.483,45.477 88.025,35.667 88.066,32.287 C88.175,23.219 75.605,7.629 46.506,7.227 C17.407,6.825 0.223,27.276 0.065,40.308 L1.358,65.908 C5.046,56.967 21.067,43.62 46.506,41.99 Z" id="Path" fill="#FDFDFC"></path>
                <path d="M82.9,96.573 C85.76,96.539 88.618,96.513 91.457,96.5 C91.25,93.244 87.957,41.07 88.066,32.287 C88.129,27.001 83.846,19.515 74.53,14.097 C78.13,18.75 79.83,23.634 79.786,27.497 C79.695,36.133 82.067,81.069 82.9,96.573 Z" id="Path" fill="#A7A7A7"></path>
                <path d="M89.083,56.448 C88.483,45.477 88.025,35.667 88.066,32.287 C88.129,27.001 83.846,19.515 74.53,14.097 C78.13,18.75 79.83,23.634 79.786,27.497 C79.752,30.741 80.065,39.104 80.514,49.104 C83.7973661,51.0046192 86.7022385,53.4942192 89.083,56.448 L89.083,56.448 Z" id="Path" fill="#DADADA"></path>
                <path d="M136.754,38.565 C169.011,38.571 183.564,56.129 184.561,64.288 C184.606,48.375 184.622,36.369 184.655681,33.62 C184.77,24.109 170.33,0.851 136.755,0.388 C103.18,-0.075 88.181,22.775 88.067,32.288 C88.021,36.062 88.603,47.852 89.298,60.326 C93.867,51.734 111.273,38.56 136.754,38.565 Z" id="Path" fill="#FDFDFC"></path>
                <path d="M166.895,8.736 C174.022,16.126 177.35,24.436 177.295,29.354 C177.18,39.619 177.278,169.243 175.595,181.028 C175.259005,183.436286 174.51502,185.769693 173.395,187.928 C179.45,184.176 182.168,179.264 182.953,174.158 C184.634,163.237 184.536,43.129 184.653,33.617 C184.727,27.71 179.167,16.5 166.895,8.736 Z" id="Path" fill="#A7A7A7"></path>
                <path d="M311.135,52.083 C334.985,53.949 346.204,70.446 348.403,81.448 C348.965221,73.9521883 349.081092,66.4295714 348.75,58.92 C347.776,45.62 339.85,22.826 311.135,20.02 C284.543,17.42 268.327,38.043 268.226,46.363 C268.198,48.734 267.91,58.09 267.473,70.731 C271.82,62.516 286.188,50.131 311.135,52.083 Z" id="Path" fill="#FDFDFC"></path>
                <path d="M226.86,41.991 C255.318,42.145 265.03,59.627 267.503,69.861 C267.924,57.661 268.198,48.677 268.226,46.361 C268.336,37.293 261.357,5.728 226.86,5.251 C197.76,4.851 184.76,24.551 184.66,33.621 C184.628,36.259 184.613,47.421 184.571,62.376 C188.955,53.881 202.512,41.859 226.86,41.991 Z" id="Path" fill="#FDFDFC"></path>
                <path d="M255.875,16.878 C258.389954,22.9846664 259.785524,29.4940542 259.995,36.095 C259.888,46.101 256.104,168.332 254.384,178.347 C253.568349,183.85972 250.917947,188.936457 246.861,192.757 C257.735,188.652 261.318,181.315 262.491,175.257 C264.249,166.182 268.117,55.425 268.226,46.357 C268.293,40.836 265.687,26.986 255.875,16.878 Z" id="Path" fill="#A7A7A7"></path>
            </g>
            <path d="M280.491,175.259 C278.733,184.334 271.657,196.329 242.557,195.927 C213.457,195.525 200.883,180.354 200.957,174.161 C199.277,185.082 188.965,195.187 155.389,194.723 L155.373,194.723 C141.099704,189.208943 125.947829,186.318209 110.647,186.19 C178.139,187.122 187.965,134.971 188.847,110.331 C189.094,103.431 183.982,97.684 177.523,97.595 C177.523,97.595 144.872,96.329 109.457,96.495 C78.678,96.64 45.813,97.867 30.469,101.954 C27.3305413,102.775452 24.2766552,103.891405 21.348,105.287 L21.348,105.204 L21.336,105.253 C0.455,115.283 -1.81,137.96 2.114,183.706 C6.55,235.413 41.031,275.238 92.661,304.479 C144.291,333.72 196.061,313.285 196.061,313.285 C196.061,313.285 238.909,335.027 282.743,307.104 C325.969,279.568 357.427,247.066 346.664,186.104 C341.374,189.967 332.837,192.704 319.082,192.512 C295.015,192.183 280.416,181.452 280.491,175.259 Z" id="Path" fill="#E5E5E4"></path>
            <path d="M346.66,186.108 C343.445,188.456 339.005,190.375 332.949,191.486 C335.942,241.227 319.017,273.637 293.411,300.008 C330.967,273.876 356.515,241.922 346.66,186.108 Z" id="Path" fill="#FCFCFA"></path>
            <path d="M110.647,186.194 C178.139,187.126 187.965,134.975 188.847,110.335 C189.094,103.435 183.982,97.688 177.523,97.599 C177.523,97.599 144.872,96.333 109.457,96.499 C78.678,96.644 45.813,97.871 30.469,101.958 C27.3305413,102.779452 24.2766552,103.895405 21.348,105.291 L21.348,105.208 L21.336,105.257 C0.455,115.287 -1.81,137.964 2.114,183.71 C2.186,184.55 2.333,185.36 2.421,186.193 L110.647,186.193 L110.647,186.194 Z" id="Path" fill="#E5E5E4"></path>
            <path d="M177.523,97.6 C177.523,97.6 144.872,96.334 109.457,96.5 C78.678,96.645 45.813,97.872 30.469,101.959 C27.3305413,102.780452 24.2766552,103.896405 21.348,105.292 L21.348,105.209 L21.336,105.258 C0.455,115.288 -1.81,137.965 2.114,183.711 C6.127,230.49 34.786,267.511 78.432,295.804 C44.667,263.721 23.86,224.371 20.967,185.514 C18.074,146.657 40.067,138.441 65.682,137.644 C79.295,137.22 94.62,137.044 109.461,137.006 C123.038,136.971 142.285,137.051 160.861,137.164 C175.804011,137.253144 188.151415,125.527679 188.834,110.6 L188.847,110.334 C189.094,103.434 183.982,97.688 177.523,97.6 Z" id="Path" fill="#FCFCFA"></path>
            <path d="M280.491,175.259 C278.733,184.334 271.657,196.329 242.557,195.927 C213.457,195.525 200.883,180.354 200.957,174.161 C199.277,185.082 188.965,195.187 155.389,194.723 L155.373,194.723 L155.343,194.712 C199.553,211.912 218.912,249.168 218.912,249.168 C218.912,249.168 255.397,201.852 319.078,192.512 C295.015,192.183 280.416,181.452 280.491,175.259 Z" id="Path" fill="url(#linearGradient-17)"></path>
            <path d="M319.078,192.516 C313.069199,193.400975 307.119608,194.649601 301.262,196.255 C306.994755,197.635161 312.865707,198.359804 318.762,198.415 C323.600272,198.499809 328.435742,198.127489 333.204,197.303 C333.147,195.348 333.066,193.497 332.945,191.486 C328.367121,192.279146 323.722822,192.62411 319.078,192.516 Z" id="Path" fill="#919191"></path>
            <path d="M346.66,186.108 C343.445,188.456 339.006,190.375 332.949,191.486 C333.065,193.413 333.149,195.418 333.208,197.303 C339.422,196.197 344.16,194.351 347.578,192.013 C347.315,190.073 347.013,188.108 346.66,186.108 Z" id="Path" fill="url(#linearGradient-18)"></path>
            <path d="M200.696,187.134 C207.522,194.178 220.996,201.534 242.419,201.826 C266.402,202.157 277.158,195.057 282.026,187.204 C286.008,190.682 292.572,194.119 301.262,196.255 C307.119608,194.649601 313.069199,193.400975 319.078,192.516 C295.015,192.183 280.416,181.452 280.491,175.259 C278.733,184.334 271.657,196.329 242.557,195.927 C213.457,195.525 200.883,180.354 200.957,174.161 C199.277,185.082 188.965,195.187 155.389,194.723 L155.373,194.723 L155.344,194.712 C159.490189,196.348869 163.543003,198.213029 167.484,200.296 C186.253,198.978 196.067,193.747 200.696,187.134 Z" id="Path" fill="#6D6D6D"></path>
            <path d="M218.912,249.172 C218.912,249.172 186.767,187.245 110.647,186.194 L59.442,186.194 C59.442,186.194 65.442,228.282 128.095,246.705 C191.453,265.334 218.912,249.172 218.912,249.172" id="Path" fill="url(#linearGradient-19)"></path>
            <path d="M117.775,174.3 L59.442,186.2 L110.647,186.2 C170.436,187.026 184.961,146.206 188.113,119.745 C181.092,142.779 162.383,165.8 117.775,174.3 Z" id="Path" fill="url(#linearGradient-20)"></path>
            <g id="Group" transform="translate(131.000000, 404.000000)" fill="#A7A7A7">
                <polygon id="Path" points="54.316 98.786 48.039 98.702 81.48 0.374 87.634 0.289"></polygon>
                <polygon id="Path" points="125.987 46.531 89.532 37.252 87.55 43.111 114.475 48.882 83.305 55.663 80.965 62.58 125.988 51.2 135.19 48.874"></polygon>
                <polygon id="Path" points="9.791 52.544 46.245 61.823 48.227 55.964 21.302 50.193 52.473 43.412 54.813 36.495 9.79 47.875 0.587 50.202"></polygon>
            </g>
        </g>
        <g id="Hat" transform="translate(124.000000, 0.000000)" fill-rule="nonzero">
            <g id="Group" transform="translate(0.000000, 91.000000)">
                <path d="M36.167,29.448 C56.24,38.878 62.167,52.788 78.534,72.461 C78.584,57.597 78.605,45.087 78.628,38.361 C68.278,24.651 61.253,14.382 45.367,6.919 C40.776,4.761 35.405,2.643 30.227,0.402 C17.766,0.323 7.886,3.451 0.407,7.908 C3.259,17.348 22.946,23.236 36.167,29.448 Z" id="Path" fill="#CACAC9"></path>
                <path d="M60.895,8.736 C68.022,16.126 71.35,24.436 71.295,29.354 C71.262,32.363 71.246,45.662 71.195,63.208 C73.436,66.145 75.833,69.217 78.531,72.461 L78.531,72.27 C78.542,68.74 78.553,65.348 78.562,62.133 C78.562,61.788 78.562,61.46 78.562,61.12 C78.572,57.677 78.58,54.465 78.587,51.52 C78.61,42.195 78.625,35.571 78.648,33.62 C78.727,27.71 73.167,16.5 60.895,8.736 Z" id="Path" fill="#6D6D6D"></path>
                <path d="M160.079,108.237 C159.719,117.286 159.34,126.379 158.96,134.859 C185.025,147.467 210.96,153.44 234.646,152.322 C235.697,145.531 236.756,137.896 237.746,129.922 C213.258,129.836 186.619,122.472 160.079,108.237 Z" id="Path" fill="#CACAC9"></path>
                <path d="M78.629,38.362 C78.606,45.087 78.585,57.597 78.535,72.462 C88.179,84.055 101.435,97.647 123.37,113.511 C134.585069,121.656107 146.494209,128.799918 158.96,134.86 C159.34,126.38 159.719,117.287 160.079,108.238 C150.534152,103.107345 141.343892,97.3427609 132.57,90.983 C102.878,69.5 89.067,52.184 78.629,38.362 Z" id="Path" fill="#CACAC9"></path>
                <path d="M78.601,48.86 C78.611,44.608 78.62,41.02 78.629,38.36 C68.279,24.65 61.254,14.381 45.368,6.918 C40.777,4.76 35.406,2.642 30.228,0.401 C26.2209132,0.370143434 22.2194545,0.707224654 18.274,1.408 C25.306,4.867 33.613,7.925 40.297,11.065 C58.634,19.682 65.384,31.965 78.601,48.86 Z" id="Path" fill="#6D6D6D"></path>
                <path d="M160.079,108.237 C159.979,110.723 159.879,113.189 159.779,115.668 C186.179,129.387 212.6,136.415 236.922,136.38013 C237.202,134.256 237.478667,132.102333 237.752,129.919 C213.258,129.836 186.619,122.472 160.079,108.237 Z" id="Path" fill="#6D6D6D"></path>
                <path d="M129.148,96.719 C138.878925,103.777739 149.115877,110.111159 159.776,115.668 C159.876,113.189 159.976,110.723 160.076,108.237 C150.531152,103.106345 141.340892,97.3417609 132.567,90.982 C102.875,69.504 89.061,52.182 78.626,38.362 C78.617,41.02 78.608,44.608 78.598,48.862 C88.812,61.913 102.882,77.719 129.148,96.719 Z" id="Path" fill="#6D6D6D"></path>
                <path d="M160.079,108.237 C157.357,106.778 154.638,105.226 151.921,103.627 C151.599,112.791 151.261,122.027 150.921,130.744 C153.601,132.176 156.282,133.563 158.962,134.859 C159.34,126.379 159.719,117.286 160.079,108.237 Z" id="Path" fill="#6D6D6D"></path>
            </g>
            <path d="M258.709,165.228 C295.559,159.42 313.168,134.28 323.948,147.066 C333.248,158.094 318.843,197.059 277.932,213.591 C237.021,230.123 183.113,218.544 132.57,181.982 C73.426,139.198 77.27,112.907 45.37,97.92 C27.92,89.72 -0.818,82.094 12.79,66.114 C26.398,50.134 80.052,54.505 98.241,66.077 C116.676,77.805 133.946,109.683 164.317,132.477 C194.688,155.271 223.515,170.774 258.709,165.228 Z" id="Path" fill="#75CDD8"></path>
            <path d="M270.801,105.49 C252.751,146.144 262.727,177.421 255.072,182.943 C240.679,193.325 194.767,183.498 159.946,159.42 C125.125,135.342 91.246,98.42 92.98,81.327 C95.498,56.485 136.625,21.717 155.374,13.208 C166.259,8.267 208.462,45.802 220.974,57.721 C233.486,69.64 270.801,105.49 270.801,105.49 Z" id="Path" fill="#75CDD8"></path>
            <ellipse id="Oval" fill="#ACE1E8" transform="translate(213.088449, 59.350419) rotate(-51.358000) translate(-213.088449, -59.350419) " cx="213.088449" cy="59.3504185" rx="16.806" ry="73.891"></ellipse>
            <path d="M216.267,58.176 C177.411,26.303 162.24,32.565 162.24,32.565 C170.548,43.879 184.907,58.333 202.596,72.475 C221.229,87.375 239.364,98.565 252.408,103.884 L252.408,103.884 C252.408,103.884 252.406,87.824 216.267,58.176 Z" id="Path" fill="#75CDD8"></path>
            <path d="M162.226,137.36 C251.454,214.198 292.238,157.714 298.755,166.819 C305.272,175.924 268.892,199.462 253.294,201.778 C215.211,207.432 169.363,189.651 138.294,163.599 C118.727,147.19 101.385,127.692 89.905,111.058 C72.516,85.858 33.426,77.74 51.516,68.381 C58.986,64.516 84.876,68.024 108.855,84.481 C127.688,97.4 143.178,120.956 162.226,137.36 Z" id="Path" fill="#589AA2"></path>
            <path d="M260.58,141.254 L260.571,141.254 C250.181,154.254 209.479,142.767 172.191,112.954 C135.951,83.981 114.428,50.454 122.778,36.654 C107.878,50.429 94.388,67.426 92.978,81.322 C91.245,98.413 125.123,135.336 159.944,159.415 C194.765,183.494 240.677,193.315 255.07,182.938 C260.267,179.2 257.367,163.584 260.58,141.254 Z" id="Path" fill="#F0F2E7"></path>
            <path d="M162.237,32.565 L162.228,32.565 C154.471,37.028 139.34,47.756 126.356,61.47 C134.291,76.832 150.593,95.689 172.191,112.956 C196.519,132.406 222.246,143.99 240.114,146.128 C242.11021,131.517866 246.252188,117.282428 252.406,103.882 C239.362,98.562 221.226,87.369 202.593,72.472 C184.904,58.333 170.545,43.879 162.237,32.565 Z" id="Path" fill="#589AA2"></path>
            <path d="M126.356,61.473 C113.993,74.529 103.597,90.291 103.362,105.954 C103.662,106.373 103.915,106.775 104.225,107.198 C109.934467,114.805763 116.209955,121.97178 122.998,128.635 C126.653,132.275 130.526,135.906 134.549,139.463 C138.572,143.02 142.749,146.504 147,149.852 C151.251,153.2 155.593,156.41 159.946,159.42 C166.471496,163.910946 173.314869,167.921518 180.422,171.42 C200.946,181.563 222.358,187.059 237.746,187.008352 C238.834,179.674 237.501,165.089 240.114,146.129 C222.246,143.991 196.519,132.407 172.191,112.957 C150.593,95.692 134.291,76.835 126.356,61.473 Z" id="Path" fill="#ACE1E8"></path>
        </g>
    </g>
</svg>